<?xml version="1.0" standalone="no"?>
<!DOCTYPE svg PUBLIC "-//W3C//DTD SVG 20010904//EN"
 "http://www.w3.org/TR/2001/REC-SVG-20010904/DTD/svg10.dtd">
<svg version="1.0" xmlns="http://www.w3.org/2000/svg"
 width="800.000000pt" height="800.000000pt" viewBox="0 0 800.000000 800.000000"
 preserveAspectRatio="xMidYMid meet">
<metadata>
Created by potrace 1.11, written by Peter Selinger 2001-2013
</metadata>
<g transform="translate(0.000000,800.000000) scale(0.100000,-0.100000)"
fill="#000000" stroke="none">
<path d="M0 4000 l0 -4000 4000 0 4000 0 0 4000 0 4000 -4000 0 -4000 0 0
-4000z m6065 3476 c258 -30 507 -122 725 -267 136 -91 335 -291 429 -432 119
-181 194 -361 243 -583 l22 -99 4 -1980 c3 -2051 2 -2133 -38 -2322 -84 -400
-326 -756 -675 -993 -152 -103 -378 -198 -557 -234 -132 -27 -254 -36 -510
-36 l-248 0 26 58 c140 310 273 703 369 1093 32 129 105 492 105 521 0 6 -53
-40 -117 -103 -395 -385 -870 -622 -1393 -695 -306 -43 -483 -42 -794 2 -208
29 -368 71 -571 151 -151 60 -435 199 -435 213 0 5 -37 34 -82 64 -166 109
-396 323 -545 506 -119 148 -272 409 -356 610 -66 157 -154 441 -176 565 -75
427 -38 886 104 1295 49 141 162 378 240 506 410 671 1110 1124 1875 1215
l105 13 80 66 c207 173 517 390 799 559 172 103 495 271 576 300 38 14 99 16
390 15 190 0 372 -4 405 -8z"/>
<path d="M3940 5643 c-433 -65 -747 -222 -1021 -511 -154 -162 -290 -383 -364
-592 -127 -358 -122 -790 15 -1146 108 -281 130 -375 137 -596 7 -202 -3 -269
-86 -590 -33 -126 -55 -228 -51 -228 5 0 141 60 302 134 161 73 336 147 388
164 207 66 388 83 615 57 195 -23 444 -16 590 15 324 69 610 224 840 454 143
144 233 268 314 431 98 197 147 363 170 577 75 677 -282 1340 -891 1653 -250
129 -489 186 -772 184 -88 -1 -172 -3 -186 -6z m498 -387 c250 -63 445 -175
628 -361 501 -508 498 -1329 -6 -1836 -182 -183 -381 -294 -644 -360 -119 -30
-361 -37 -497 -14 -475 79 -869 408 -1028 858 -100 284 -100 588 0 874 152
435 527 758 990 853 141 29 413 22 557 -14z"/>
<path d="M3508 4967 c-291 -182 -490 -484 -543 -824 -8 -48 -7 -48 61 -29 233
68 710 126 1047 126 l138 0 -37 58 c-61 97 -217 312 -298 412 -115 142 -265
300 -284 299 -9 0 -47 -19 -84 -42z"/>
<path d="M3735 4173 c-246 -20 -531 -64 -685 -105 l-85 -23 1 -135 c2 -109 7
-154 28 -233 43 -167 144 -352 267 -491 46 -52 154 -146 168 -146 5 0 12 16
15 35 41 215 282 767 468 1073 l20 32 -79 -2 c-43 -1 -96 -3 -118 -5z"/>
<path d="M3760 3757 c-155 -323 -298 -728 -270 -762 18 -22 205 -110 284 -134
248 -76 555 -63 775 31 l44 18 -99 103 c-177 182 -382 457 -558 751 l-96 159
-80 -166z"/>
</g>
</svg>
